<?xml version="1.0" standalone="yes"?>
<svg width="365" height="531">
<path style="fill:#00a2e8; stroke:none;" d="M0 0L0 531L365 531L365 0L0 0z"/>
<path style="fill:#ffffff; stroke:none;" d="M148 84C140.688 84 133.306 83.701 126.001 84.0193C123.73 84.1183 119.401 84.5701 119.921 87.9105C120.409 91.0407 124.659 90.9513 127 90.9954C133.617 91.1198 142.738 89.2945 149 91.6034C159.894 95.62 171.81 112.81 180 121C182.9 123.9 188.712 127.882 189.793 132C191.391 138.086 174.046 150.954 170 155C149.926 175.074 124.335 194.811 108 218L107 218C103.381 212.863 96.1583 208.494 95.1481 202C93.7108 192.759 95 182.353 95 173C95 169.87 96.041 164.007 93.4012 161.662C89.2725 157.994 88.0505 165.561 88.0046 168C87.8166 177.992 88 188.006 88 198L64 174C61.6096 171.609 56.0556 167.753 56.0556 164C56.0556 160.542 60.805 157.197 63 155C69.0665 148.928 76.6843 143.003 81.6628 136.001C83.4934 133.426 83.4335 128.569 78.9807 130.176C75.8474 131.306 73.2849 134.72 71 137L64 144L54 154C54 145.001 54.0612 135.999 53.9992 127C53.9821 124.517 54.2174 118.278 50.0895 118.921C44.9613 119.72 47 133.379 47 137C47 145.293 44.2788 159.502 48.0278 167C51.8043 174.553 61.0655 181.066 67 187C63.0254 187 39.9552 184.709 40.9213 190.91C41.4594 194.365 46.5018 193.982 49 193.999C56.1803 194.049 65.0201 192.568 72 194.318C77.2582 195.636 81.3312 201.331 85 205L112 232L139 259C143.197 263.197 149.285 267.626 151.972 273C155.181 279.418 153 290.934 153 298L153 356L57 356L57 488L275 488L275 356L160 356L160 303C160 295.936 158.104 285.569 160.938 279C167.35 264.142 186.447 253.463 197.455 242.455C204.362 235.549 210.249 223.199 220 219.603C225.15 217.705 232.569 219 238 219L277 219C281.023 219 293.693 221.07 295.824 216.701C299.006 210.18 277.206 212 274 212C279.909 206.091 286.52 200.438 291.847 194C293.794 191.647 295.45 185.202 289.981 187.176C278.916 191.168 274.161 207.282 263 211.397C252.974 215.093 236.68 212 226 212L303 135C308.97 129.03 315.27 123.255 320.941 117C322.461 115.323 325.662 111.986 323.338 109.662C320.408 106.732 315.835 112.205 314 114.005C306.598 121.265 299.331 128.669 292 136L222 206C215.453 212.547 203.994 229.431 195 231.793C191.447 232.726 188.163 228.154 186 226L163 203C160.702 200.703 155.285 193.25 151.337 195.176C146.189 197.688 155.258 205.254 157 207L178 228C180.661 230.661 185.798 234.21 186.793 238C188.417 244.184 170.178 257.878 166 261.998C164.004 263.967 161.228 267.641 158 266.793C153.245 265.545 148.369 258.369 145 255C134.447 244.447 124.205 231.597 112 223L112 222L161 174L210 124L211 124C214.888 126.945 220.284 126 225 126L257 126C259.879 126 270.912 127.439 270.079 122.09C269.369 117.535 260.115 119 257 119L216 119C221.307 113.693 226.9 108.56 231.941 103C233.461 101.323 236.662 97.9861 234.338 95.662C231.166 92.4897 225.917 99.0967 224 101.001C217.311 107.644 210.712 114.379 204 120.998C201.638 123.328 198.687 127.202 195 125.364C190.099 122.92 170.91 105.467 173.636 100C176.033 95.1929 192.71 85.2516 189.824 79.3372C188.064 75.7289 183.665 79.5501 182 81.0594C177.814 84.8535 169.316 98.0639 163 93.7037C148.403 83.6272 160.154 69.1192 154.397 56.1528C152.828 52.6201 149.217 53.8052 148.318 57.0594C147.075 61.5583 148 67.3579 148 72L148 84z"/>
<path style="fill:#ed1c24; stroke:none;" d="M142.001 100.649C122.947 106.393 132.157 135.543 150.999 129.146C168.714 123.132 159.932 95.244 142.001 100.649z"/>
<path style="fill:#b5e61d; stroke:none;" d="M295.001 150.649C275.947 156.392 285.157 185.543 303.999 179.146C321.714 173.132 312.932 145.244 295.001 150.649z"/>
<path style="fill:#fff200; stroke:none;" d="M193.001 189.649C173.947 195.393 183.157 224.543 201.999 218.146C219.714 212.132 210.932 184.244 193.001 189.649z"/>
<path style="fill:#ffaec9; stroke:none;" d="M66.0008 208.649C46.9467 214.392 56.1571 243.543 74.9992 237.146C92.7143 231.132 83.9315 203.244 66.0008 208.649z"/>
<path style="fill:#00a2e8; stroke:none;" d="M64 363L64 481L153 481L153 363L64 363M160 363L160 481L268 481L268 363L160 363z"/>
</svg>
